<?xml version="1.0" encoding="UTF-8"?>
<!DOCTYPE svg PUBLIC "-//W3C//DTD SVG 1.1//EN" "http://www.w3.org/Graphics/SVG/1.1/DTD/svg11.dtd">
<svg xmlns="http://www.w3.org/2000/svg" version="1.1" width="736px" height="736px" style="shape-rendering:geometricPrecision; text-rendering:geometricPrecision; image-rendering:optimizeQuality; fill-rule:evenodd; clip-rule:evenodd" xmlns:xlink="http://www.w3.org/1999/xlink">
<g><path style="opacity:0.186" fill="#a79f9c" d="M 357.5,183.5 C 362.985,182.348 368.651,182.182 374.5,183C 377.742,183.406 380.742,184.239 383.5,185.5C 374.907,183.994 366.24,183.327 357.5,183.5 Z"/></g>
<g><path style="opacity:0.997" fill="#100d0c" d="M 357.5,183.5 C 366.24,183.327 374.907,183.994 383.5,185.5C 384.78,186.931 386.447,187.598 388.5,187.5C 392.582,188.376 396.249,190.043 399.5,192.5C 400.634,195.034 402.634,196.367 405.5,196.5C 409.456,198.788 412.789,201.788 415.5,205.5C 415.738,207.404 416.738,208.738 418.5,209.5C 421.916,213.323 424.582,217.657 426.5,222.5C 428.658,228.646 429.992,234.98 430.5,241.5C 430.5,242.167 430.167,242.5 429.5,242.5C 428.183,242.821 426.849,243.154 425.5,243.5C 423.823,242.813 422.156,242.146 420.5,241.5C 420.889,238.447 420.223,235.78 418.5,233.5C 418.572,228.31 416.572,224.31 412.5,221.5C 411.662,221.158 411.328,220.492 411.5,219.5C 411.573,217.973 410.906,216.973 409.5,216.5C 407.155,214.486 405.155,212.153 403.5,209.5C 402.415,207.413 400.749,206.08 398.5,205.5C 392.512,201.672 386.179,198.672 379.5,196.5C 374.935,194.96 370.102,194.293 365,194.5C 361.5,194.667 358,194.833 354.5,195C 353.263,195.232 352.263,195.732 351.5,196.5C 349.102,196.259 347.102,196.926 345.5,198.5C 341.774,197.951 339.107,199.285 337.5,202.5C 337.158,203.338 336.492,203.672 335.5,203.5C 333.906,203.92 332.406,204.586 331,205.5C 329.943,204.373 328.777,203.873 327.5,204C 328.582,205.33 329.249,206.83 329.5,208.5C 327.421,208.971 325.421,209.637 323.5,210.5C 322.624,210.631 321.957,210.298 321.5,209.5C 322.665,208.416 323.998,207.583 325.5,207C 324.027,206.29 323.36,205.124 323.5,203.5C 321.007,203.869 320.34,203.203 321.5,201.5C 322.723,198.648 324.723,197.981 327.5,199.5C 329.533,195.808 332.2,192.808 335.5,190.5C 341.094,189.03 346.427,187.03 351.5,184.5C 353.265,183.539 355.265,183.205 357.5,183.5 Z"/></g>
<g><path style="opacity:0.18" fill="#746c6a" d="M 383.5,185.5 C 385.553,185.402 387.22,186.069 388.5,187.5C 386.447,187.598 384.78,186.931 383.5,185.5 Z"/></g>
<g><path style="opacity:0.706" fill="#5d5753" d="M 351.5,184.5 C 346.427,187.03 341.094,189.03 335.5,190.5C 340.244,187.138 345.577,185.138 351.5,184.5 Z"/></g>
<g><path style="opacity:0.588" fill="#655d5b" d="M 399.5,192.5 C 401.853,193.34 403.853,194.674 405.5,196.5C 402.634,196.367 400.634,195.034 399.5,192.5 Z"/></g>
<g><path style="opacity:0.29" fill="#988d8e" d="M 329.5,193.5 C 328.738,195.262 327.404,196.262 325.5,196.5C 326.262,194.738 327.596,193.738 329.5,193.5 Z"/></g>
<g><path style="opacity:0.082" fill="#807775" d="M 379.5,196.5 C 370.167,195.167 360.833,195.167 351.5,196.5C 352.263,195.732 353.263,195.232 354.5,195C 358,194.833 361.5,194.667 365,194.5C 370.102,194.293 374.935,194.96 379.5,196.5 Z"/></g>
<g><path style="opacity:0.949" fill="#363030" d="M 335.5,190.5 C 332.2,192.808 329.533,195.808 327.5,199.5C 324.723,197.981 322.723,198.648 321.5,201.5C 320.833,201.5 320.167,201.5 319.5,201.5C 320.911,199.086 322.911,197.419 325.5,196.5C 327.404,196.262 328.738,195.262 329.5,193.5C 331.181,191.992 333.181,190.992 335.5,190.5 Z"/></g>
<g><path style="opacity:0.098" fill="#78706d" d="M 351.5,196.5 C 349.786,197.738 347.786,198.405 345.5,198.5C 347.102,196.926 349.102,196.259 351.5,196.5 Z"/></g>
<g><path style="opacity:0.784" fill="#4e4845" d="M 345.5,198.5 C 343.151,200.341 340.485,201.674 337.5,202.5C 339.107,199.285 341.774,197.951 345.5,198.5 Z"/></g>
<g><path style="opacity:1" fill="#3b3837" d="M 335.5,203.5 C 333.909,205.633 331.909,207.299 329.5,208.5C 329.249,206.83 328.582,205.33 327.5,204C 328.777,203.873 329.943,204.373 331,205.5C 332.406,204.586 333.906,203.92 335.5,203.5 Z"/></g>
<g><path style="opacity:0.376" fill="#676260" d="M 398.5,205.5 C 400.749,206.08 402.415,207.413 403.5,209.5C 401.251,208.92 399.585,207.587 398.5,205.5 Z"/></g>
<g><path style="opacity:0.384" fill="#6f6a66" d="M 319.5,201.5 C 317.906,204.764 315.573,207.431 312.5,209.5C 314.094,206.236 316.427,203.569 319.5,201.5 Z"/></g>
<g><path style="opacity:0.294" fill="#7e7573" d="M 415.5,205.5 C 417.262,206.262 418.262,207.596 418.5,209.5C 416.738,208.738 415.738,207.404 415.5,205.5 Z"/></g>
<g><path style="opacity:0.989" fill="#141312" d="M 319.5,201.5 C 320.167,201.5 320.833,201.5 321.5,201.5C 320.34,203.203 321.007,203.869 323.5,203.5C 323.36,205.124 324.027,206.29 325.5,207C 323.998,207.583 322.665,208.416 321.5,209.5C 321.957,210.298 322.624,210.631 323.5,210.5C 322.699,212.042 322.366,213.708 322.5,215.5C 321.974,217.23 320.974,218.564 319.5,219.5C 318.094,219.973 317.427,220.973 317.5,222.5C 315.461,223.911 314.461,225.911 314.5,228.5C 312.787,229.635 312.12,231.302 312.5,233.5C 306.705,254.99 311.539,273.656 327,289.5C 338.728,301.396 350.562,313.063 362.5,324.5C 362.5,326.5 363.5,327.5 365.5,327.5C 367.557,331.067 370.223,334.234 373.5,337C 374.5,337.667 375.5,337.667 376.5,337C 377.373,335.955 378.373,335.122 379.5,334.5C 381.143,334.52 382.476,333.853 383.5,332.5C 384.167,333.5 384.833,334.5 385.5,335.5C 387.368,335.946 389.201,336.279 391,336.5C 391.483,335.552 391.649,334.552 391.5,333.5C 392.5,333.5 393.5,333.5 394.5,333.5C 394.297,331.61 394.963,330.11 396.5,329C 395.167,328.333 393.833,327.667 392.5,327C 394.481,326.395 394.815,325.395 393.5,324C 394.449,323.383 395.282,323.549 396,324.5C 397.012,322.136 398.345,320.802 400,320.5C 400.308,321.308 400.808,321.975 401.5,322.5C 404.452,319.97 407.786,318.303 411.5,317.5C 399.827,330.007 387.66,342.007 375,353.5C 365.674,345.341 356.841,336.674 348.5,327.5C 347.5,324.5 345.5,322.5 342.5,321.5C 328.723,309.56 316.557,296.227 306,281.5C 298.074,267.186 295.908,252.186 299.5,236.5C 301.411,232.767 302.744,228.767 303.5,224.5C 305.315,218.708 308.315,213.708 312.5,209.5C 315.573,207.431 317.906,204.764 319.5,201.5 Z"/></g>
<g><path style="opacity:0.912" fill="#484442" d="M 329.5,208.5 C 327.5,211.167 325.167,213.5 322.5,215.5C 322.366,213.708 322.699,212.042 323.5,210.5C 325.421,209.637 327.421,208.971 329.5,208.5 Z"/></g>
<g><path style="opacity:0.067" fill="#888380" d="M 409.5,216.5 C 410.906,216.973 411.573,217.973 411.5,219.5C 410.094,219.027 409.427,218.027 409.5,216.5 Z"/></g>
<g><path style="opacity:0.094" fill="#908689" d="M 319.5,219.5 C 319.573,221.027 318.906,222.027 317.5,222.5C 317.427,220.973 318.094,219.973 319.5,219.5 Z"/></g>
<g><path style="opacity:0.922" fill="#56504e" d="M 412.5,221.5 C 416.572,224.31 418.572,228.31 418.5,233.5C 416.533,229.565 414.533,225.565 412.5,221.5 Z"/></g>
<g><path style="opacity:0.588" fill="#605656" d="M 426.5,222.5 C 430.373,228.415 431.707,234.748 430.5,241.5C 429.992,234.98 428.658,228.646 426.5,222.5 Z"/></g>
<g><path style="opacity:0.141" fill="#887f7e" d="M 317.5,222.5 C 317.008,224.819 316.008,226.819 314.5,228.5C 314.461,225.911 315.461,223.911 317.5,222.5 Z"/></g>
<g><path style="opacity:0.478" fill="#67625f" d="M 303.5,224.5 C 302.744,228.767 301.411,232.767 299.5,236.5C 299.861,232.085 301.194,228.085 303.5,224.5 Z"/></g>
<g><path style="opacity:0.275" fill="#79726f" d="M 314.5,228.5 C 314.598,230.553 313.931,232.22 312.5,233.5C 312.12,231.302 312.787,229.635 314.5,228.5 Z"/></g>
<g><path style="opacity:0.188" fill="#7d7374" d="M 418.5,233.5 C 420.223,235.78 420.889,238.447 420.5,241.5C 419.232,239.095 418.565,236.428 418.5,233.5 Z"/></g>
<g><path style="opacity:0.153" fill="#908583" d="M 420.5,241.5 C 422.156,242.146 423.823,242.813 425.5,243.5C 426.849,243.154 428.183,242.821 429.5,242.5C 428.688,243.993 427.355,244.66 425.5,244.5C 423.058,244.714 421.392,243.714 420.5,241.5 Z"/></g>
<g><path style="opacity:0.706" fill="#59504d" d="M 455.5,264.5 C 452.833,264.833 450.167,265.167 447.5,265.5C 449.993,263.416 452.66,263.083 455.5,264.5 Z"/></g>
<g><path style="opacity:0.153" fill="#786d6a" d="M 455.5,264.5 C 457.933,264.273 459.599,265.273 460.5,267.5C 458.566,266.89 456.899,265.89 455.5,264.5 Z"/></g>
<g><path style="opacity:0.999" fill="#171515" d="M 274.5,266.5 C 275.151,267.091 275.818,267.757 276.5,268.5C 277.696,268.154 277.696,267.654 276.5,267C 279.053,266.149 281.386,266.482 283.5,268C 278.77,270.001 278.437,272.501 282.5,275.5C 281.174,276.642 280.174,277.976 279.5,279.5C 279.5,335.5 279.5,391.5 279.5,447.5C 279.167,448.5 278.5,449.167 277.5,449.5C 274.763,449.599 272.096,449.265 269.5,448.5C 268.778,448.082 268.278,447.416 268,446.5C 267.171,388.096 267.338,329.763 268.5,271.5C 269.882,270.199 271.548,269.366 273.5,269C 272.434,267.841 272.767,267.008 274.5,266.5 Z"/></g>
<g><path style="opacity:0.996" fill="#030203" d="M 455.5,264.5 C 456.899,265.89 458.566,266.89 460.5,267.5C 461.826,328.186 461.826,388.852 460.5,449.5C 458.143,449.663 455.81,449.497 453.5,449C 452.944,448.617 452.611,448.117 452.5,447.5C 452.667,390.499 452.5,333.499 452,276.5C 450.701,276.034 449.201,276.034 447.5,276.5C 447.719,277.675 447.386,278.675 446.5,279.5C 444.914,277.827 444.247,275.827 444.5,273.5C 445.552,273.649 446.552,273.483 447.5,273C 447.31,271.172 446.977,269.338 446.5,267.5C 446.833,266.833 447.167,266.167 447.5,265.5C 450.167,265.167 452.833,264.833 455.5,264.5 Z"/></g>
<g><path style="opacity:0.949" fill="#4f4846" d="M 281.5,265.5 C 278.941,265.198 276.607,265.532 274.5,266.5C 272.767,267.008 272.434,267.841 273.5,269C 271.548,269.366 269.882,270.199 268.5,271.5C 270.775,264.869 275.109,262.869 281.5,265.5 Z"/></g>
<g><path style="opacity:0.012" fill="#989694" d="M 310.5,293.5 C 312.027,293.427 313.027,294.094 313.5,295.5C 311.973,295.573 310.973,294.906 310.5,293.5 Z"/></g>
<g><path style="opacity:1" fill="#121010" d="M 274.5,266.5 C 276.607,265.532 278.941,265.198 281.5,265.5C 291.774,274.106 301.441,283.439 310.5,293.5C 310.973,294.906 311.973,295.573 313.5,295.5C 317.439,301.108 322.106,306.108 327.5,310.5C 327.833,310.5 328.167,310.5 328.5,310.5C 330.5,314.5 333.5,317.5 337.5,319.5C 338.757,322.427 340.757,324.761 343.5,326.5C 344.167,326.833 344.833,327.167 345.5,327.5C 346.415,329.754 347.748,331.754 349.5,333.5C 348.288,334.23 347.288,335.23 346.5,336.5C 345.833,335.833 345.167,335.167 344.5,334.5C 344.167,334.833 343.833,335.167 343.5,335.5C 345.135,338.8 347.468,341.467 350.5,343.5C 350.543,345.818 350.876,348.151 351.5,350.5C 346.833,346.5 342.5,342.167 338.5,337.5C 338.144,335.81 337.144,334.81 335.5,334.5C 317.167,316.833 299.167,298.833 281.5,280.5C 281.158,279.662 280.492,279.328 279.5,279.5C 280.174,277.976 281.174,276.642 282.5,275.5C 278.437,272.501 278.77,270.001 283.5,268C 281.386,266.482 279.053,266.149 276.5,267C 277.696,267.654 277.696,268.154 276.5,268.5C 275.818,267.757 275.151,267.091 274.5,266.5 Z"/></g>
<g><path style="opacity:0.996" fill="#0d0b09" d="M 446.5,267.5 C 446.977,269.338 447.31,271.172 447.5,273C 446.552,273.483 445.552,273.649 444.5,273.5C 444.247,275.827 444.914,277.827 446.5,279.5C 447.386,278.675 447.719,277.675 447.5,276.5C 449.201,276.034 450.701,276.034 452,276.5C 452.5,333.499 452.667,390.499 452.5,447.5C 452.167,447.5 451.833,447.5 451.5,447.5C 451.833,391.163 451.5,334.829 450.5,278.5C 449.893,278.624 449.56,278.957 449.5,279.5C 444.5,285.167 439.167,290.5 433.5,295.5C 433.631,294.624 433.298,293.957 432.5,293.5C 431.476,294.853 430.143,295.52 428.5,295.5C 428.5,296.833 428.5,298.167 428.5,299.5C 426.04,299.699 423.707,300.365 421.5,301.5C 421.709,302.086 422.043,302.586 422.5,303C 420.085,304.465 419.085,306.632 419.5,309.5C 418.178,309.67 417.011,309.337 416,308.5C 415.363,310.303 414.197,311.636 412.5,312.5C 411.691,314.071 411.357,315.738 411.5,317.5C 407.786,318.303 404.452,319.97 401.5,322.5C 400.808,321.975 400.308,321.308 400,320.5C 398.345,320.802 397.012,322.136 396,324.5C 395.282,323.549 394.449,323.383 393.5,324C 394.815,325.395 394.481,326.395 392.5,327C 393.833,327.667 395.167,328.333 396.5,329C 394.963,330.11 394.297,331.61 394.5,333.5C 393.5,333.5 392.5,333.5 391.5,333.5C 391.649,334.552 391.483,335.552 391,336.5C 389.201,336.279 387.368,335.946 385.5,335.5C 384.833,334.5 384.167,333.5 383.5,332.5C 382.476,333.853 381.143,334.52 379.5,334.5C 401.5,311.833 423.833,289.5 446.5,267.5 Z"/></g>
<g><path style="opacity:0.97" fill="#2a2524" d="M 433.5,295.5 C 429.167,300.5 424.5,305.167 419.5,309.5C 419.085,306.632 420.085,304.465 422.5,303C 422.043,302.586 421.709,302.086 421.5,301.5C 423.707,300.365 426.04,299.699 428.5,299.5C 428.5,298.167 428.5,296.833 428.5,295.5C 430.143,295.52 431.476,294.853 432.5,293.5C 433.298,293.957 433.631,294.624 433.5,295.5 Z"/></g>
<g><path style="opacity:0.294" fill="#918d8e" d="M 313.5,295.5 C 318.894,299.892 323.561,304.892 327.5,310.5C 322.106,306.108 317.439,301.108 313.5,295.5 Z"/></g>
<g><path style="opacity:0.259" fill="#888280" d="M 447.5,265.5 C 447.167,266.167 446.833,266.833 446.5,267.5C 423.833,289.5 401.5,311.833 379.5,334.5C 378.373,335.122 377.373,335.955 376.5,337C 375.5,337.667 374.5,337.667 373.5,337C 370.223,334.234 367.557,331.067 365.5,327.5C 368.797,330.296 371.964,333.296 375,336.5C 398.751,312.247 422.918,288.581 447.5,265.5 Z"/></g>
<g><path style="opacity:0.289" fill="#766c6d" d="M 449.5,279.5 C 449.56,278.957 449.893,278.624 450.5,278.5C 451.5,334.829 451.833,391.163 451.5,447.5C 450.833,391.5 450.167,335.5 449.5,279.5 Z"/></g>
<g><path style="opacity:0.369" fill="#959192" d="M 328.5,310.5 C 331.833,313.167 334.833,316.167 337.5,319.5C 333.5,317.5 330.5,314.5 328.5,310.5 Z"/></g>
<g><path style="opacity:0.976" fill="#2b2827" d="M 419.5,309.5 C 417.167,312.5 414.5,315.167 411.5,317.5C 411.357,315.738 411.691,314.071 412.5,312.5C 414.197,311.636 415.363,310.303 416,308.5C 417.011,309.337 418.178,309.67 419.5,309.5 Z"/></g>
<g><path style="opacity:0.306" fill="#8c8c8c" d="M 337.5,319.5 C 340.243,321.239 342.243,323.573 343.5,326.5C 340.757,324.761 338.757,322.427 337.5,319.5 Z"/></g>
<g><path style="opacity:0.624" fill="#535152" d="M 342.5,321.5 C 345.5,322.5 347.5,324.5 348.5,327.5C 346.167,325.833 344.167,323.833 342.5,321.5 Z"/></g>
<g><path style="opacity:0.224" fill="#8d8586" d="M 362.5,324.5 C 363.833,325.167 364.833,326.167 365.5,327.5C 363.5,327.5 362.5,326.5 362.5,324.5 Z"/></g>
<g><path style="opacity:0.329" fill="#908c8d" d="M 345.5,327.5 C 353.556,334.555 360.89,342.221 367.5,350.5C 361.5,344.833 355.5,339.167 349.5,333.5C 347.748,331.754 346.415,329.754 345.5,327.5 Z"/></g>
<g><path style="opacity:0.224" fill="#7d7775" d="M 335.5,334.5 C 337.144,334.81 338.144,335.81 338.5,337.5C 336.856,337.19 335.856,336.19 335.5,334.5 Z"/></g>
<g><path style="opacity:0.495" fill="#716966" d="M 460.5,267.5 C 461.222,267.918 461.722,268.584 462,269.5C 463.927,329.168 463.927,388.835 462,448.5C 461.617,449.056 461.117,449.389 460.5,449.5C 461.826,388.852 461.826,328.186 460.5,267.5 Z"/></g>
<g><path style="opacity:0.278" fill="#898384" d="M 367.5,350.5 C 371.5,352.5 374.5,355.5 376.5,359.5C 373.14,356.806 370.14,353.806 367.5,350.5 Z"/></g>
<g><path style="opacity:0.996" fill="#100e0e" d="M 349.5,333.5 C 355.5,339.167 361.5,344.833 367.5,350.5C 370.14,353.806 373.14,356.806 376.5,359.5C 380.454,363.116 384.454,366.783 388.5,370.5C 389.167,373.167 390.833,374.833 393.5,375.5C 397.833,381.833 403.167,387.167 409.5,391.5C 409.738,393.404 410.738,394.738 412.5,395.5C 414.144,395.81 415.144,396.81 415.5,398.5C 413.727,399.388 412.394,400.721 411.5,402.5C 412.249,404.241 412.583,405.908 412.5,407.5C 413.768,406.572 415.101,406.405 416.5,407C 414.978,408.916 413.978,411.083 413.5,413.5C 413.167,413.5 412.833,413.5 412.5,413.5C 411.167,411.5 409.833,409.5 408.5,407.5C 406.5,403.5 403.5,400.5 399.5,398.5C 396.5,396.167 393.833,393.5 391.5,390.5C 390.5,387.5 388.5,385.5 385.5,384.5C 373.833,373.5 362.5,362.167 351.5,350.5C 350.876,348.151 350.543,345.818 350.5,343.5C 347.468,341.467 345.135,338.8 343.5,335.5C 343.833,335.167 344.167,334.833 344.5,334.5C 345.167,335.167 345.833,335.833 346.5,336.5C 347.288,335.23 348.288,334.23 349.5,333.5 Z"/></g>
<g><path style="opacity:0.188" fill="#908584" d="M 388.5,370.5 C 390.5,371.833 392.167,373.5 393.5,375.5C 390.833,374.833 389.167,373.167 388.5,370.5 Z"/></g>
<g><path style="opacity:0.18" fill="#958a88" d="M 393.5,375.5 C 399.167,380.5 404.5,385.833 409.5,391.5C 403.167,387.167 397.833,381.833 393.5,375.5 Z"/></g>
<g><path style="opacity:0.261" fill="#958b89" d="M 279.5,279.5 C 280.492,279.328 281.158,279.662 281.5,280.5C 280.833,336.167 280.167,391.833 279.5,447.5C 279.5,391.5 279.5,335.5 279.5,279.5 Z"/></g>
<g><path style="opacity:0.365" fill="#585252" d="M 385.5,384.5 C 388.5,385.5 390.5,387.5 391.5,390.5C 389.167,388.833 387.167,386.833 385.5,384.5 Z"/></g>
<g><path style="opacity:0.2" fill="#918785" d="M 409.5,391.5 C 411.262,392.262 412.262,393.596 412.5,395.5C 410.738,394.738 409.738,393.404 409.5,391.5 Z"/></g>
<g><path style="opacity:0.459" fill="#57504f" d="M 399.5,398.5 C 403.5,400.5 406.5,403.5 408.5,407.5C 405.167,404.833 402.167,401.833 399.5,398.5 Z"/></g>
<g><path style="opacity:0.192" fill="#675e60" d="M 415.5,398.5 C 417.914,399.911 419.581,401.911 420.5,404.5C 418.086,403.089 416.419,401.089 415.5,398.5 Z"/></g>
<g><path style="opacity:0.994" fill="#0f0d0d" d="M 415.5,398.5 C 416.419,401.089 418.086,403.089 420.5,404.5C 420.427,406.027 421.094,407.027 422.5,407.5C 422.427,409.027 423.094,410.027 424.5,410.5C 425.136,413.106 425.136,415.606 424.5,418C 427.382,420.284 429.382,423.117 430.5,426.5C 431.36,436.139 431.693,445.806 431.5,455.5C 431.41,459.214 430.41,462.548 428.5,465.5C 426.258,468.082 424.924,471.082 424.5,474.5C 422.913,478.683 420.579,482.35 417.5,485.5C 415.856,485.714 414.356,485.38 413,484.5C 411.778,487.893 409.611,490.56 406.5,492.5C 405.873,490.059 404.206,488.059 401.5,486.5C 404.213,484.786 406.213,482.453 407.5,479.5C 411.787,476.203 414.454,471.869 415.5,466.5C 418.16,463.887 419.493,460.554 419.5,456.5C 420.833,447.167 420.833,437.833 419.5,428.5C 418.348,424.835 418.181,421.169 419,417.5C 417.226,416.035 415.392,414.702 413.5,413.5C 413.978,411.083 414.978,408.916 416.5,407C 415.101,406.405 413.768,406.572 412.5,407.5C 412.583,405.908 412.249,404.241 411.5,402.5C 412.394,400.721 413.727,399.388 415.5,398.5 Z"/></g>
<g><path style="opacity:0.161" fill="#6f6865" d="M 420.5,404.5 C 421.906,404.973 422.573,405.973 422.5,407.5C 421.094,407.027 420.427,406.027 420.5,404.5 Z"/></g>
<g><path style="opacity:0.125" fill="#847d7a" d="M 422.5,407.5 C 423.906,407.973 424.573,408.973 424.5,410.5C 423.094,410.027 422.427,409.027 422.5,407.5 Z"/></g>
<g><path style="opacity:1" fill="#2d2928" d="M 412.5,413.5 C 412.833,413.5 413.167,413.5 413.5,413.5C 415.392,414.702 417.226,416.035 419,417.5C 418.181,421.169 418.348,424.835 419.5,428.5C 417.458,423.413 415.125,418.413 412.5,413.5 Z"/></g>
<g><path style="opacity:0.982" fill="#383331" d="M 424.5,410.5 C 427.585,415.353 429.585,420.686 430.5,426.5C 429.382,423.117 427.382,420.284 424.5,418C 425.136,415.606 425.136,413.106 424.5,410.5 Z"/></g>
<g><path style="opacity:0.514" fill="#6a6260" d="M 309.5,443.5 C 305.833,439.5 302.167,439.5 298.5,443.5C 300.194,438.987 303.194,437.82 307.5,440C 308.823,440.816 309.489,441.983 309.5,443.5 Z"/></g>
<g><path style="opacity:0.395" fill="#655f5b" d="M 430.5,426.5 C 433.777,436.089 434.11,445.756 431.5,455.5C 431.693,445.806 431.36,436.139 430.5,426.5 Z"/></g>
<g><path style="opacity:0.635" fill="#584f49" d="M 269.5,448.5 C 272.096,449.265 274.763,449.599 277.5,449.5C 274.526,452.309 271.859,451.976 269.5,448.5 Z"/></g>
<g><path style="opacity:0.482" fill="#655c58" d="M 451.5,447.5 C 451.833,447.5 452.167,447.5 452.5,447.5C 452.611,448.117 452.944,448.617 453.5,449C 455.81,449.497 458.143,449.663 460.5,449.5C 458.122,451.918 455.455,452.085 452.5,450C 451.748,449.329 451.414,448.496 451.5,447.5 Z"/></g>
<g><path style="opacity:0.447" fill="#928a86" d="M 311.5,456.5 C 313.147,460.424 314.814,464.424 316.5,468.5C 313.314,465.311 311.647,461.311 311.5,456.5 Z"/></g>
<g><path style="opacity:0.353" fill="#6d6361" d="M 419.5,456.5 C 419.493,460.554 418.16,463.887 415.5,466.5C 416.658,463.011 417.991,459.678 419.5,456.5 Z"/></g>
<g><path style="opacity:0.868" fill="#403937" d="M 299.5,457.5 C 302.199,460.591 303.533,464.258 303.5,468.5C 301.399,465.203 300.065,461.537 299.5,457.5 Z"/></g>
<g><path style="opacity:0.153" fill="#857c7b" d="M 415.5,466.5 C 414.454,471.869 411.787,476.203 407.5,479.5C 410.174,475.162 412.841,470.828 415.5,466.5 Z"/></g>
<g><path style="opacity:0.667" fill="#504946" d="M 428.5,465.5 C 428.308,469.102 426.974,472.102 424.5,474.5C 424.924,471.082 426.258,468.082 428.5,465.5 Z"/></g>
<g><path style="opacity:0.278" fill="#888281" d="M 316.5,468.5 C 318.008,470.181 319.008,472.181 319.5,474.5C 317.461,473.089 316.461,471.089 316.5,468.5 Z"/></g>
<g><path style="opacity:0.498" fill="#897f7d" d="M 319.5,474.5 C 321.587,475.585 322.92,477.251 323.5,479.5C 321.413,478.415 320.08,476.749 319.5,474.5 Z"/></g>
<g><path style="opacity:0.961" fill="#221e1d" d="M 314.5,486.5 C 309.929,482.369 306.596,477.369 304.5,471.5C 305.75,471.423 306.583,470.756 307,469.5C 308.487,471.985 310.321,474.152 312.5,476C 311.707,477.085 311.04,478.252 310.5,479.5C 310.938,480.506 311.604,480.506 312.5,479.5C 313.287,480.242 313.953,481.075 314.5,482C 313.587,483.414 313.587,484.914 314.5,486.5 Z"/></g>
<g><path style="opacity:0.51" fill="#6f6b69" d="M 323.5,479.5 C 325.167,480.5 326.5,481.833 327.5,483.5C 325.167,483.167 323.833,481.833 323.5,479.5 Z"/></g>
<g><path style="opacity:0.016" fill="#aca3a1" d="M 327.5,483.5 C 329.749,484.08 331.415,485.413 332.5,487.5C 330.251,486.92 328.585,485.587 327.5,483.5 Z"/></g>
<g><path style="opacity:0.604" fill="#5c5454" d="M 407.5,479.5 C 406.213,482.453 404.213,484.786 401.5,486.5C 400.609,487.11 399.609,487.443 398.5,487.5C 401.474,484.862 404.474,482.195 407.5,479.5 Z"/></g>
<g><path style="opacity:0.212" fill="#847c77" d="M 314.5,487.5 C 317.167,488.167 318.833,489.833 319.5,492.5C 317.5,491.167 315.833,489.5 314.5,487.5 Z"/></g>
<g><path style="opacity:0.992" fill="#12100f" d="M 309.5,443.5 C 310.563,447.639 311.23,451.972 311.5,456.5C 311.647,461.311 313.314,465.311 316.5,468.5C 316.461,471.089 317.461,473.089 319.5,474.5C 320.08,476.749 321.413,478.415 323.5,479.5C 323.833,481.833 325.167,483.167 327.5,483.5C 328.585,485.587 330.251,486.92 332.5,487.5C 332.973,488.906 333.973,489.573 335.5,489.5C 337.662,492.42 340.662,494.087 344.5,494.5C 346.102,496.074 348.102,496.741 350.5,496.5C 350.833,496.5 351.167,496.5 351.5,496.5C 352.334,497.748 353.667,498.415 355.5,498.5C 364.586,499.841 373.586,499.341 382.5,497C 383.056,496.617 383.389,496.117 383.5,495.5C 384.93,494.463 386.597,493.796 388.5,493.5C 390.38,493.771 391.713,493.104 392.5,491.5C 395.198,491.155 397.198,489.822 398.5,487.5C 399.609,487.443 400.609,487.11 401.5,486.5C 404.206,488.059 405.873,490.059 406.5,492.5C 409.611,490.56 411.778,487.893 413,484.5C 414.356,485.38 415.856,485.714 417.5,485.5C 407.396,498.053 394.396,505.719 378.5,508.5C 371.847,509.054 365.18,509.388 358.5,509.5C 355.941,509.802 353.607,509.468 351.5,508.5C 349.485,507.076 347.152,506.41 344.5,506.5C 335.952,504.562 328.618,500.562 322.5,494.5C 322.027,493.094 321.027,492.427 319.5,492.5C 318.833,489.833 317.167,488.167 314.5,487.5C 314.5,487.167 314.5,486.833 314.5,486.5C 313.587,484.914 313.587,483.414 314.5,482C 313.953,481.075 313.287,480.242 312.5,479.5C 311.604,480.506 310.938,480.506 310.5,479.5C 311.04,478.252 311.707,477.085 312.5,476C 310.321,474.152 308.487,471.985 307,469.5C 306.583,470.756 305.75,471.423 304.5,471.5C 303.596,470.791 303.263,469.791 303.5,468.5C 303.533,464.258 302.199,460.591 299.5,457.5C 297.816,452.786 297.483,448.119 298.5,443.5C 302.167,439.5 305.833,439.5 309.5,443.5 Z"/></g>
<g><path style="opacity:0.075" fill="#ada5a2" d="M 332.5,487.5 C 334.027,487.427 335.027,488.094 335.5,489.5C 333.973,489.573 332.973,488.906 332.5,487.5 Z"/></g>
<g><path style="opacity:0.541" fill="#7c7774" d="M 335.5,489.5 C 338.696,490.929 341.696,492.595 344.5,494.5C 340.662,494.087 337.662,492.42 335.5,489.5 Z"/></g>
<g><path style="opacity:0.263" fill="#89807f" d="M 398.5,487.5 C 397.198,489.822 395.198,491.155 392.5,491.5C 394.147,489.674 396.147,488.34 398.5,487.5 Z"/></g>
<g><path style="opacity:0.2" fill="#837e81" d="M 319.5,492.5 C 321.027,492.427 322.027,493.094 322.5,494.5C 320.973,494.573 319.973,493.906 319.5,492.5 Z"/></g>
<g><path style="opacity:0.176" fill="#7a7574" d="M 392.5,491.5 C 391.713,493.104 390.38,493.771 388.5,493.5C 389.514,492.326 390.847,491.66 392.5,491.5 Z"/></g>
<g><path style="opacity:0.176" fill="#847e7c" d="M 344.5,494.5 C 346.786,494.595 348.786,495.262 350.5,496.5C 348.102,496.741 346.102,496.074 344.5,494.5 Z"/></g>
<g><path style="opacity:0.302" fill="#5c5554" d="M 383.5,495.5 C 383.389,496.117 383.056,496.617 382.5,497C 373.586,499.341 364.586,499.841 355.5,498.5C 353.667,498.415 352.334,497.748 351.5,496.5C 362.244,499.159 372.91,498.825 383.5,495.5 Z"/></g>
<g><path style="opacity:0.216" fill="#534f4d" d="M 344.5,506.5 C 347.152,506.41 349.485,507.076 351.5,508.5C 348.848,508.59 346.515,507.924 344.5,506.5 Z"/></g>
<g><path style="opacity:0.086" fill="#6a6161" d="M 378.5,508.5 C 371.891,510.471 365.224,510.804 358.5,509.5C 365.18,509.388 371.847,509.054 378.5,508.5 Z"/></g>
</svg>
